<svg width="153" height="36" viewBox="0 0 153 36" fill="none" xmlns="http://www.w3.org/2000/svg">
<rect width="153" height="36" rx="8" fill="#DB8E21"/>
<path d="M25.696 19.216V17.376H21.344V14.192H26.528V12.304H19.296V24H21.344V19.216H25.696ZM29.0621 14.512C29.7021 14.512 30.2301 13.984 30.2301 13.328C30.2301 12.672 29.7021 12.16 29.0621 12.16C28.3901 12.16 27.8621 12.672 27.8621 13.328C27.8621 13.984 28.3901 14.512 29.0621 14.512ZM28.0861 24H30.0381V16.096H28.0861V24ZM34.0069 24V19.744C34.0069 18.464 34.7429 17.632 35.9429 17.632C36.9509 17.632 37.6069 18.272 37.6069 19.6V24H39.5589V19.136C39.5589 17.088 38.5349 15.856 36.5509 15.856C35.4789 15.856 34.5189 16.32 34.0229 17.12L33.8629 16.096H32.0549V24H34.0069ZM44.7248 24.208C45.9248 24.208 46.9488 23.68 47.4288 22.768L47.5568 24H49.3488V12.096H47.4128V17.104C46.9168 16.32 45.9408 15.856 44.8368 15.856C42.4528 15.856 41.0128 17.616 41.0128 20.08C41.0128 22.528 42.4368 24.208 44.7248 24.208ZM45.1568 22.416C43.7968 22.416 42.9648 21.424 42.9648 20.016C42.9648 18.608 43.7968 17.6 45.1568 17.6C46.5168 17.6 47.3968 18.592 47.3968 20.016C47.3968 21.44 46.5168 22.416 45.1568 22.416ZM58.0475 24.208C59.2795 24.208 60.3515 23.648 60.6875 22.832L60.8315 24H62.5435V19.2C62.5435 17.008 61.2315 15.856 59.1035 15.856C56.9595 15.856 55.5515 16.976 55.5515 18.688H57.2155C57.2155 17.856 57.8555 17.376 59.0075 17.376C59.9995 17.376 60.6395 17.808 60.6395 18.88V19.056L58.2715 19.232C56.3995 19.376 55.3435 20.288 55.3435 21.744C55.3435 23.232 56.3675 24.208 58.0475 24.208ZM58.6875 22.736C57.8075 22.736 57.3275 22.384 57.3275 21.664C57.3275 21.024 57.7915 20.624 59.0075 20.512L60.6555 20.384V20.8C60.6555 22.016 59.8875 22.736 58.6875 22.736ZM66.4131 24V19.744C66.4131 18.464 67.1491 17.632 68.3491 17.632C69.3571 17.632 70.0131 18.272 70.0131 19.6V24H71.9651V19.136C71.9651 17.088 70.9411 15.856 68.9571 15.856C67.8851 15.856 66.9251 16.32 66.4291 17.12L66.2691 16.096H64.4611V24H66.4131ZM80.5475 24.208C81.7795 24.208 82.8515 23.648 83.1875 22.832L83.3315 24H85.0435V19.2C85.0435 17.008 83.7315 15.856 81.6035 15.856C79.4595 15.856 78.0515 16.976 78.0515 18.688H79.7155C79.7155 17.856 80.3555 17.376 81.5075 17.376C82.4995 17.376 83.1395 17.808 83.1395 18.88V19.056L80.7715 19.232C78.8995 19.376 77.8435 20.288 77.8435 21.744C77.8435 23.232 78.8675 24.208 80.5475 24.208ZM81.1875 22.736C80.3075 22.736 79.8275 22.384 79.8275 21.664C79.8275 21.024 80.2915 20.624 81.5075 20.512L83.1555 20.384V20.8C83.1555 22.016 82.3875 22.736 81.1875 22.736ZM90.2091 24.208C91.4091 24.208 92.4331 23.68 92.9131 22.768L93.0411 24H94.8331V12.096H92.8971V17.104C92.4011 16.32 91.4251 15.856 90.3211 15.856C87.9371 15.856 86.4971 17.616 86.4971 20.08C86.4971 22.528 87.9211 24.208 90.2091 24.208ZM90.6411 22.416C89.2811 22.416 88.4491 21.424 88.4491 20.016C88.4491 18.608 89.2811 17.6 90.6411 17.6C92.0011 17.6 92.8811 18.592 92.8811 20.016C92.8811 21.44 92.0011 22.416 90.6411 22.416ZM100.115 24.208C101.315 24.208 102.339 23.68 102.819 22.768L102.947 24H104.739V12.096H102.803V17.104C102.307 16.32 101.331 15.856 100.227 15.856C97.8434 15.856 96.4034 17.616 96.4034 20.08C96.4034 22.528 97.8274 24.208 100.115 24.208ZM100.547 22.416C99.1874 22.416 98.3554 21.424 98.3554 20.016C98.3554 18.608 99.1874 17.6 100.547 17.6C101.907 17.6 102.787 18.592 102.787 20.016C102.787 21.44 101.907 22.416 100.547 22.416ZM111.734 16.064C111.414 15.984 111.142 15.952 110.87 15.952C109.814 15.952 109.062 16.48 108.726 17.264L108.614 16.112H106.774V24H108.726V20.16C108.726 18.624 109.606 17.872 111.014 17.872H111.734V16.064ZM116.325 24.208C118.389 24.208 119.829 23.168 120.165 21.44H118.357C118.133 22.192 117.429 22.608 116.357 22.608C115.061 22.608 114.325 21.904 114.181 20.512L120.133 20.496V19.904C120.133 17.44 118.629 15.856 116.261 15.856C113.941 15.856 112.325 17.568 112.325 20.048C112.325 22.496 113.973 24.208 116.325 24.208ZM116.277 17.456C117.445 17.456 118.197 18.176 118.197 19.264H114.229C114.421 18.08 115.125 17.456 116.277 17.456ZM121.088 21.6C121.088 23.152 122.336 24.208 124.304 24.208C126.256 24.208 127.616 23.216 127.616 21.616C127.616 20.4 126.944 19.792 125.616 19.488L124.192 19.152C123.52 18.992 123.168 18.704 123.168 18.256C123.168 17.664 123.616 17.312 124.384 17.312C125.136 17.312 125.584 17.744 125.6 18.416H127.456C127.44 16.88 126.24 15.856 124.464 15.856C122.64 15.856 121.328 16.784 121.328 18.336C121.328 19.6 122.016 20.272 123.44 20.592L124.864 20.928C125.568 21.088 125.776 21.376 125.776 21.776C125.776 22.352 125.28 22.72 124.368 22.72C123.472 22.72 122.96 22.288 122.944 21.6H121.088ZM128.494 21.6C128.494 23.152 129.742 24.208 131.71 24.208C133.662 24.208 135.022 23.216 135.022 21.616C135.022 20.4 134.35 19.792 133.022 19.488L131.598 19.152C130.926 18.992 130.574 18.704 130.574 18.256C130.574 17.664 131.022 17.312 131.79 17.312C132.542 17.312 132.99 17.744 133.006 18.416H134.862C134.846 16.88 133.646 15.856 131.87 15.856C130.046 15.856 128.734 16.784 128.734 18.336C128.734 19.6 129.422 20.272 130.846 20.592L132.27 20.928C132.974 21.088 133.182 21.376 133.182 21.776C133.182 22.352 132.686 22.72 131.774 22.72C130.878 22.72 130.366 22.288 130.35 21.6H128.494Z" fill="white"/>
</svg>
