<svg width="24" height="24" viewBox="0 0 24 24" fill="none" xmlns="http://www.w3.org/2000/svg">
<path opacity="0.2" d="M9.75 15.75C9.75 16.4917 9.53007 17.2167 9.11801 17.8334C8.70596 18.4501 8.12029 18.9307 7.43506 19.2145C6.74984 19.4984 5.99584 19.5726 5.26841 19.4279C4.54098 19.2833 3.8728 18.9261 3.34835 18.4017C2.8239 17.8772 2.46675 17.209 2.32206 16.4816C2.17736 15.7542 2.25162 15.0002 2.53545 14.3149C2.81928 13.6297 3.29993 13.044 3.91661 12.632C4.5333 12.2199 5.25832 12 6 12C6.99456 12 7.94839 12.3951 8.65165 13.0983C9.35491 13.8016 9.75 14.7554 9.75 15.75ZM18 12C17.2583 12 16.5333 12.2199 15.9166 12.632C15.2999 13.044 14.8193 13.6297 14.5355 14.3149C14.2516 15.0002 14.1774 15.7542 14.3221 16.4816C14.4668 17.209 14.8239 17.8772 15.3484 18.4017C15.8728 18.9261 16.541 19.2833 17.2684 19.4279C17.9958 19.5726 18.7498 19.4984 19.4351 19.2145C20.1203 18.9307 20.706 18.4501 21.118 17.8334C21.5301 17.2167 21.75 16.4917 21.75 15.75C21.75 14.7554 21.3549 13.8016 20.6517 13.0983C19.9484 12.3951 18.9946 12 18 12Z" fill="#353431" fill-opacity="0.7"/>
<path d="M22.2375 14.2406C22.1722 14.0647 22.097 13.8925 22.0125 13.725L18.1219 4.85623C18.0829 4.77213 18.0289 4.69587 17.9625 4.63123C17.6838 4.35202 17.3529 4.1305 16.9885 3.97936C16.6241 3.82822 16.2335 3.75043 15.8391 3.75043C15.4446 3.75043 15.054 3.82822 14.6896 3.97936C14.3253 4.1305 13.9943 4.35202 13.7156 4.63123C13.6469 4.70026 13.5925 4.78217 13.5555 4.87225C13.5185 4.96234 13.4997 5.05884 13.5 5.15623V7.87498H10.5V5.15623C10.5003 5.05884 10.4815 4.96234 10.4445 4.87225C10.4075 4.78217 10.3531 4.70026 10.2844 4.63123C10.0057 4.35202 9.67474 4.1305 9.31037 3.97936C8.94601 3.82822 8.55541 3.75043 8.16094 3.75043C7.76647 3.75043 7.37587 3.82822 7.01151 3.97936C6.64714 4.1305 6.31616 4.35202 6.0375 4.63123C5.97109 4.69587 5.91708 4.77213 5.87813 4.85623L1.9875 13.725C1.90297 13.8925 1.82785 14.0647 1.7625 14.2406C1.58828 14.7247 1.49946 15.2354 1.5 15.75C1.5 16.9435 1.97411 18.088 2.81802 18.932C3.66194 19.7759 4.80653 20.25 6 20.25C7.19348 20.25 8.33807 19.7759 9.18198 18.932C10.0259 18.088 10.5 16.9435 10.5 15.75V9.37498H13.5V15.75C13.5 16.9435 13.9741 18.088 14.818 18.932C15.6619 19.7759 16.8065 20.25 18 20.25C19.1935 20.25 20.3381 19.7759 21.182 18.932C22.0259 18.088 22.5 16.9435 22.5 15.75C22.5005 15.2354 22.4117 14.7247 22.2375 14.2406ZM7.19063 5.60623C7.4404 5.39547 7.75183 5.27148 8.07811 5.25288C8.4044 5.23428 8.7279 5.32209 9 5.5031V12.4031C8.1789 11.6579 7.10885 11.2466 6 11.25C5.52909 11.2491 5.06094 11.3219 4.6125 11.4656L7.19063 5.60623ZM6 18.75C5.51836 18.7518 5.04341 18.6372 4.61555 18.4161C4.18768 18.1949 3.81956 17.8737 3.54249 17.4797C3.26543 17.0858 3.08761 16.6307 3.02417 16.1533C2.96074 15.6758 3.01355 15.1901 3.17813 14.7375L3.34688 14.3625C3.59308 13.8905 3.96045 13.4925 4.41126 13.2094C4.86207 12.9263 5.3801 12.7683 5.91217 12.7515C6.44424 12.7347 6.9712 12.8598 7.43895 13.1139C7.90671 13.3681 8.29841 13.7421 8.57387 14.1976C8.84933 14.6532 8.99862 15.1738 9.00641 15.7061C9.0142 16.2383 8.88022 16.7631 8.61822 17.2265C8.35622 17.6899 7.97563 18.0752 7.51552 18.343C7.0554 18.6107 6.53234 18.7512 6 18.75ZM15 5.5031C15.2721 5.32209 15.5956 5.23428 15.9219 5.25288C16.2482 5.27148 16.5596 5.39547 16.8094 5.60623L19.3875 11.4656C18.9391 11.3219 18.4709 11.2491 18 11.25C16.8912 11.2466 15.8211 11.6579 15 12.4031V5.5031ZM18 18.75C17.4677 18.7512 16.9446 18.6107 16.4845 18.343C16.0244 18.0752 15.6438 17.6899 15.3818 17.2265C15.1198 16.7631 14.9858 16.2383 14.9936 15.7061C15.0014 15.1738 15.1507 14.6532 15.4261 14.1976C15.7016 13.7421 16.0933 13.3681 16.5611 13.1139C17.0288 12.8598 17.5558 12.7347 18.0878 12.7515C18.6199 12.7683 19.1379 12.9263 19.5887 13.2094C20.0396 13.4925 20.4069 13.8905 20.6531 14.3625L20.8219 14.7375C20.9865 15.1901 21.0393 15.6758 20.9758 16.1533C20.9124 16.6307 20.7346 17.0858 20.4575 17.4797C20.1804 17.8737 19.8123 18.1949 19.3845 18.4161C18.9566 18.6372 18.4816 18.7518 18 18.75Z" fill="#353431" fill-opacity="0.7"/>
</svg>
