<svg width="18" height="19" viewBox="0 0 18 19" fill="none" xmlns="http://www.w3.org/2000/svg">
<path d="M18 8.82812V17.5C17.9994 17.7707 17.9259 18.0362 17.7874 18.2688C17.6488 18.5014 17.4503 18.6924 17.2125 18.8219C16.9945 18.9421 16.749 19.0035 16.5 19H12C11.8011 19 11.6103 18.921 11.4697 18.7803C11.329 18.6397 11.25 18.4489 11.25 18.25V13.75C11.25 13.5511 11.171 13.3603 11.0303 13.2197C10.8897 13.079 10.6989 13 10.5 13H7.50002C7.30111 13 7.11034 13.079 6.96969 13.2197C6.82904 13.3603 6.75002 13.5511 6.75002 13.75V18.25C6.75002 18.4489 6.671 18.6397 6.53035 18.7803C6.3897 18.921 6.19893 19 6.00002 19H1.50002C1.28723 19.0008 1.07674 18.956 0.882689 18.8687C0.688641 18.7814 0.515539 18.6535 0.375019 18.4937C0.131171 18.2056 -0.00181034 17.8399 1.86175e-05 17.4625V8.82812C8.47543e-05 8.61999 0.0434611 8.41416 0.127389 8.22371C0.211317 8.03326 0.33396 7.86235 0.487519 7.72187L7.98752 0.906243C8.26404 0.653268 8.62524 0.51297 9.00002 0.51297C9.3748 0.51297 9.736 0.653268 10.0125 0.906243L17.5125 7.72187C17.6661 7.86235 17.7887 8.03326 17.8726 8.22371C17.9566 8.41416 18 8.61999 18 8.82812Z" fill="#353431"/>
</svg>
