<svg width="23" height="46" viewBox="0 0 23 46" fill="none" xmlns="http://www.w3.org/2000/svg">
<rect x="1" y="46" width="46" height="21" rx="10.5" transform="rotate(-90 1 46)" fill="#353431"/>
<g filter="url(#filter0_dd_110_258)">
<rect x="3.49976" y="19" width="16" height="16.0003" rx="8" transform="rotate(-90 3.49976 19)" fill="white"/>
<path d="M15.479 11.7614C15.4495 11.6644 15.3893 11.5796 15.3075 11.5197C15.2257 11.4598 15.1268 11.4279 15.0254 11.429C14.9814 11.4304 14.9379 11.4383 14.8963 11.4524C14.3634 11.5987 13.8012 11.6012 13.2669 11.4597C12.7327 11.3181 12.2455 11.0376 11.8549 10.6466C11.4643 10.2556 11.1842 9.76807 11.0432 9.23368C10.9022 8.6993 10.9053 8.1371 11.0521 7.60429C11.0611 7.56844 11.0664 7.53174 11.0677 7.49479C11.0732 7.39687 11.0478 7.2997 10.9952 7.21693C10.9426 7.13416 10.8654 7.06995 10.7744 7.03332C10.6758 6.99508 10.5675 6.9896 10.4655 7.01768C9.78222 7.2099 9.16116 7.57758 8.66402 8.08417C8.16688 8.59077 7.81098 9.21865 7.63167 9.90541C7.45237 10.5922 7.45591 11.3139 7.64194 11.9989C7.82798 12.6838 8.19003 13.3082 8.69212 13.8099C9.1942 14.3116 9.81884 14.6731 10.504 14.8586C11.1891 15.0441 11.9108 15.0471 12.5974 14.8673C13.284 14.6874 13.9116 14.331 14.4178 13.8335C14.9241 13.336 15.2912 12.7146 15.4829 12.0312C15.507 11.9427 15.5056 11.8492 15.479 11.7614ZM11.5644 14.0648C10.8745 14.0657 10.2037 13.8386 9.65633 13.4188C9.10893 12.9989 8.71564 12.41 8.53764 11.7435C8.35964 11.077 8.40692 10.3703 8.67212 9.73351C8.93732 9.09667 9.40557 8.56534 10.004 8.22218C9.97542 8.79106 10.0664 9.35962 10.2711 9.89116C10.4758 10.4227 10.7896 10.9054 11.1924 11.3082C11.5952 11.711 12.0779 12.0248 12.6094 12.2295C13.141 12.4342 13.7096 12.5252 14.2784 12.4966C14.0027 12.9725 13.607 13.3678 13.1308 13.643C12.6545 13.9182 12.1144 14.0636 11.5644 14.0648Z" fill="#353431"/>
</g>
<defs>
<filter id="filter0_dd_110_258" x="0.499756" y="1" width="22.0002" height="22" filterUnits="userSpaceOnUse" color-interpolation-filters="sRGB">
<feFlood flood-opacity="0" result="BackgroundImageFix"/>
<feColorMatrix in="SourceAlpha" type="matrix" values="0 0 0 0 0 0 0 0 0 0 0 0 0 0 0 0 0 0 127 0" result="hardAlpha"/>
<feOffset dy="1"/>
<feGaussianBlur stdDeviation="1"/>
<feColorMatrix type="matrix" values="0 0 0 0 0 0 0 0 0 0 0 0 0 0 0 0 0 0 0.06 0"/>
<feBlend mode="normal" in2="BackgroundImageFix" result="effect1_dropShadow_110_258"/>
<feColorMatrix in="SourceAlpha" type="matrix" values="0 0 0 0 0 0 0 0 0 0 0 0 0 0 0 0 0 0 127 0" result="hardAlpha"/>
<feOffset dy="1"/>
<feGaussianBlur stdDeviation="1.5"/>
<feColorMatrix type="matrix" values="0 0 0 0 0 0 0 0 0 0 0 0 0 0 0 0 0 0 0.1 0"/>
<feBlend mode="normal" in2="effect1_dropShadow_110_258" result="effect2_dropShadow_110_258"/>
<feBlend mode="normal" in="SourceGraphic" in2="effect2_dropShadow_110_258" result="shape"/>
</filter>
</defs>
</svg>
