<svg width="24" height="24" viewBox="0 0 24 24" fill="none" xmlns="http://www.w3.org/2000/svg">
<path opacity="0.2" d="M15.0093 20.25L9.00928 17.25V3.75L15.0093 6.75V20.25Z" fill="#353431" fill-opacity="0.7"/>
<path d="M21.4688 4.65937C21.3803 4.58878 21.2768 4.5394 21.1663 4.51503C21.0558 4.49065 20.9412 4.49192 20.8312 4.51874L15.0937 5.95312L9.34687 3.07499H9.3375L9.2625 3.04687H9.24375L9.17812 3.02812H9.15L9.08437 3.00937H8.83125L2.83125 4.50937C2.6661 4.54972 2.51955 4.645 2.41565 4.77956C2.31174 4.91413 2.25664 5.08 2.25937 5.24999V18.75C2.25828 18.8643 2.284 18.9773 2.33447 19.0799C2.38494 19.1824 2.45876 19.2717 2.55 19.3406C2.68083 19.4439 2.84268 19.5001 3.00937 19.5L3.19687 19.4812L8.925 18.0469L14.6719 20.925H14.6812L14.7469 20.9531H14.7562L14.8312 20.9812H15.1969L21.1969 19.4812C21.3587 19.4395 21.502 19.3448 21.6039 19.2123C21.7058 19.0799 21.7605 18.9171 21.7594 18.75V5.24999C21.7605 5.13568 21.7347 5.0227 21.6843 4.92013C21.6338 4.81756 21.56 4.72825 21.4688 4.65937ZM3.75937 5.83124L8.25937 4.70624V16.6687L3.75937 17.7937V5.83124ZM14.2594 19.0406L9.75937 16.7906V4.95937L14.2594 7.20937V19.0406ZM20.2594 18.1687L15.7594 19.2937V7.33124L20.2594 6.20624V18.1687Z" fill="#353431" fill-opacity="0.7"/>
</svg>
