<svg width="24" height="24" viewBox="0 0 24 24" fill="none" xmlns="http://www.w3.org/2000/svg">
<path d="M21 12C21 12.1989 20.921 12.3897 20.7804 12.5303C20.6397 12.671 20.4489 12.75 20.25 12.75H9.75003C9.55112 12.75 9.36036 12.671 9.2197 12.5303C9.07905 12.3897 9.00003 12.1989 9.00003 12C9.00003 11.8011 9.07905 11.6103 9.2197 11.4696C9.36036 11.329 9.55112 11.25 9.75003 11.25H20.25C20.4489 11.25 20.6397 11.329 20.7804 11.4696C20.921 11.6103 21 11.8011 21 12ZM9.75003 6.74997H20.25C20.4489 6.74997 20.6397 6.67095 20.7804 6.5303C20.921 6.38965 21 6.19888 21 5.99997C21 5.80106 20.921 5.61029 20.7804 5.46964C20.6397 5.32899 20.4489 5.24997 20.25 5.24997H9.75003C9.55112 5.24997 9.36036 5.32899 9.2197 5.46964C9.07905 5.61029 9.00003 5.80106 9.00003 5.99997C9.00003 6.19888 9.07905 6.38965 9.2197 6.5303C9.36036 6.67095 9.55112 6.74997 9.75003 6.74997ZM20.25 17.25H9.75003C9.55112 17.25 9.36036 17.329 9.2197 17.4696C9.07905 17.6103 9.00003 17.8011 9.00003 18C9.00003 18.1989 9.07905 18.3896 9.2197 18.5303C9.36036 18.671 9.55112 18.75 9.75003 18.75H20.25C20.4489 18.75 20.6397 18.671 20.7804 18.5303C20.921 18.3896 21 18.1989 21 18C21 17.8011 20.921 17.6103 20.7804 17.4696C20.6397 17.329 20.4489 17.25 20.25 17.25ZM4.08753 6.29997L4.50004 6.08435V10.125C4.50004 10.3239 4.57905 10.5146 4.71971 10.6553C4.86036 10.796 5.05112 10.875 5.25004 10.875C5.44895 10.875 5.63971 10.796 5.78036 10.6553C5.92102 10.5146 6.00003 10.3239 6.00003 10.125V4.87497C6.0008 4.74699 5.96838 4.62099 5.90595 4.50926C5.84351 4.39753 5.75319 4.30389 5.64378 4.23747C5.53526 4.16925 5.41106 4.12999 5.28305 4.12342C5.15503 4.11686 5.02747 4.14321 4.91254 4.19997L3.41254 4.94997C3.32389 4.99429 3.24485 5.05564 3.17991 5.13051C3.11498 5.20538 3.06543 5.2923 3.03409 5.38632C2.9708 5.5762 2.98552 5.78345 3.07503 5.96247C3.16455 6.14149 3.32151 6.27762 3.51139 6.34092C3.70127 6.40421 3.90851 6.38948 4.08753 6.29997ZM6.76878 15.9656C7.00252 15.6266 7.12685 15.2242 7.12503 14.8125C7.12766 14.3349 6.96444 13.8711 6.66324 13.5005C6.36204 13.1298 5.94153 12.8752 5.47349 12.78C5.00544 12.6848 4.51888 12.7551 4.09685 12.9787C3.67483 13.2023 3.34349 13.5655 3.15941 14.0062C3.08109 14.1902 3.07907 14.3978 3.15379 14.5833C3.22851 14.7688 3.37385 14.917 3.55785 14.9953C3.74184 15.0736 3.94941 15.0756 4.1349 15.0009C4.32038 14.9262 4.46859 14.7808 4.54691 14.5968C4.58712 14.4933 4.6581 14.4045 4.75029 14.3425C4.84247 14.2805 4.95144 14.2482 5.06254 14.25C5.21172 14.25 5.35479 14.3092 5.46028 14.4147C5.56577 14.5202 5.62504 14.6633 5.62504 14.8125C5.62734 14.9186 5.59797 15.0231 5.54066 15.1125L3.15003 18.3C3.06646 18.4114 3.01557 18.5439 3.00307 18.6826C2.99056 18.8213 3.01692 18.9608 3.07921 19.0854C3.1415 19.21 3.23725 19.3147 3.35574 19.388C3.47422 19.4612 3.61075 19.5 3.75003 19.5H6.37503C6.57395 19.5 6.76471 19.421 6.90536 19.2803C7.04602 19.1396 7.12503 18.9489 7.12503 18.75C7.12503 18.5511 7.04602 18.3603 6.90536 18.2196C6.76471 18.079 6.57395 18 6.37503 18H5.25004L6.75003 15.9937L6.76878 15.9656Z" fill="#353431" fill-opacity="0.7"/>
</svg>
